<svg width="35" height="17" viewBox="0 0 35 17" fill="none" xmlns="http://www.w3.org/2000/svg">
<path d="M16.4452 3.98081V0.113713H6.66141C6.66141 0.113713 1.9909 0.0875271 0.614981 4.16291C0.614981 4.16291 0.00676695 5.38172 0.0293815 7.50273V10.1724C0.0293815 10.1724 -0.0360817 10.4248 0.216249 10.4248H12.3424C12.3424 10.4248 12.6019 12.91 9.17877 12.7541L0.181732 12.7612C0.181732 12.7612 -0.0384622 12.7803 0.0198596 13.0909L0.0103377 16.4093C0.0103377 16.4093 -0.0777402 16.8247 0.260288 16.7985H9.59416C9.59416 16.7985 13.2756 16.7723 15.0645 14.0764C15.0645 14.0764 16.1405 13.0647 16.4452 10.2391V6.5315C16.4452 6.5315 16.4357 6.39938 16.1833 6.38748L4.13572 6.39462C4.13572 6.39462 3.93933 4.67829 5.72945 4.21171C5.72945 4.21171 6.41622 4.04032 7.54457 4.01532L16.4452 3.98081Z" fill="#FCFCFC"/>
<path d="M18.4904 3.79752V0.342252C18.4904 0.342252 18.3821 -0.0802836 18.9618 0.0161259L25.7164 0.000652801C25.7164 0.000652801 30.9404 -0.142176 33.4339 3.79752C33.4339 3.79752 35.1967 5.95305 34.9812 11.4341L34.9991 16.5712C34.9991 16.5712 34.9789 16.8711 34.7337 16.8128L31.2546 16.82C31.2546 16.82 30.8749 16.9176 30.9106 16.4676L30.8332 8.13119C30.8332 8.13119 30.8213 4.85446 27.6577 4.27838C27.6577 4.27838 25.0844 3.90703 22.3659 4.05105H18.6797C18.6797 4.05105 18.4916 4.07723 18.4916 3.79633L18.4904 3.79752Z" fill="#FCFCFC"/>
<path d="M18.4832 16.7997V6.34227C18.4832 6.34227 18.4391 5.95544 19.0283 6.06375L22.53 6.04471V16.7997H18.4832Z" fill="#FCFCFC"/>
</svg>
